<?xml version="1.0" standalone="no"?>
<!DOCTYPE svg PUBLIC "-//W3C//DTD SVG 20010904//EN"
 "http://www.w3.org/TR/2001/REC-SVG-20010904/DTD/svg10.dtd">
<svg version="1.0" xmlns="http://www.w3.org/2000/svg"
 width="450.000000pt" height="450.000000pt" viewBox="0 0 450.000000 450.000000"
 preserveAspectRatio="xMidYMid meet">

<g transform="translate(0.000000,450.000000) scale(0.100000,-0.100000)"
fill="#000000" stroke="none">
<path d="M424 3324 c-4 -14 -4 -69 0 -122 51 -721 489 -1203 1223 -1346 180
-35 300 -44 308 -24 13 34 -131 337 -231 488 -159 239 -317 375 -504 435 -131
42 -286 129 -415 235 -83 68 -257 247 -305 313 -38 53 -66 61 -76 21z"/>
<path d="M3983 3282 c-72 -94 -271 -285 -368 -353 -108 -76 -213 -131 -317
-168 -119 -41 -173 -70 -260 -139 -126 -100 -254 -268 -363 -475 -71 -136
-138 -295 -131 -313 7 -18 60 -18 195 2 392 57 707 201 935 428 247 244 394
601 399 965 2 109 1 116 -18 119 -15 2 -34 -16 -72 -66z"/>
<path d="M2118 2234 c-63 -15 -145 -53 -194 -91 l-32 -24 50 -109 c53 -121 63
-157 54 -193 -10 -42 -49 -50 -172 -34 -78 10 -111 11 -116 3 -13 -19 -9 -160
7 -219 46 -177 180 -326 350 -389 50 -19 80 -22 185 -22 147 0 204 16 311 89
110 75 189 188 224 320 15 61 21 221 8 228 -5 2 -57 -2 -117 -10 -123 -16
-162 -8 -172 34 -9 36 1 71 55 192 l49 111 -31 24 c-123 92 -305 128 -459 90z
m1 -145 c118 -180 120 -377 6 -477 -53 -46 -117 -67 -200 -65 -64 2 -136 21
-142 38 -1 6 1 16 6 24 7 11 18 11 64 1 122 -28 221 4 272 85 26 42 30 58 30
119 -1 86 -22 153 -76 237 -22 34 -38 68 -35 75 11 29 42 13 75 -37z m337 37
c3 -7 -13 -41 -35 -75 -55 -85 -76 -151 -75 -237 0 -62 4 -78 29 -120 44 -70
88 -90 195 -87 47 1 99 3 115 5 24 2 30 -1 30 -17 0 -27 -61 -47 -150 -47
-242 -3 -345 222 -220 478 46 93 96 139 111 100z m-337 -692 c22 -9 55 -32 71
-51 27 -30 31 -41 28 -81 -3 -40 -6 -47 -25 -50 -20 -3 -23 1 -23 33 0 50 -14
71 -62 96 -35 18 -55 21 -137 18 -93 -4 -96 -3 -99 18 -3 23 1 25 68 37 43 8
136 -3 179 -20z m498 9 c8 -3 13 -15 11 -27 -3 -20 -7 -21 -99 -17 -82 3 -102
0 -137 -18 -48 -25 -62 -46 -62 -96 0 -32 -3 -36 -22 -33 -20 3 -23 10 -26 49
-2 38 2 52 24 78 49 59 122 83 228 75 37 -3 75 -8 83 -11z"/>
</g>
</svg>
